<svg xmlns="http://www.w3.org/2000/svg" width="32" height="32" viewBox="0 0 32 32" fill="none">
  <defs>
    <linearGradient id="stanza-favicon-emerald" x1="8" y1="6" x2="25" y2="27" gradientUnits="userSpaceOnUse">
      <stop stop-color="#6EE7B7"/>
      <stop offset="1" stop-color="#10B981"/>
    </linearGradient>
  </defs>
  <g transform="translate(4 4)" fill="none" stroke="#02110B" stroke-width="3.4" stroke-linecap="round" stroke-linejoin="round" opacity="0.8">
    <path d="M12 10a2 2 0 0 0-2 2c0 1.02-.1 2.51-.26 4"/><path d="M14 13.12c0 2.38 0 6.38-1 8.88"/><path d="M17.29 21.02c.12-.6.43-2.3.5-3.02"/><path d="M2 12a10 10 0 0 1 18-6"/><path d="M2 16h.01"/><path d="M21.8 16c.2-2 .131-5.354 0-6"/><path d="M5 19.5C5.5 18 6 15 6 12a6 6 0 0 1 .34-2"/><path d="M8.65 22c.21-.66.45-1.32.57-2"/><path d="M9 6.8a6 6 0 0 1 9 5.2v2"/>
  </g>
  <g transform="translate(4 4)" fill="none" stroke="url(#stanza-favicon-emerald)" stroke-width="2" stroke-linecap="round" stroke-linejoin="round">
    <path d="M12 10a2 2 0 0 0-2 2c0 1.02-.1 2.51-.26 4"/><path d="M14 13.12c0 2.38 0 6.38-1 8.88"/><path d="M17.29 21.02c.12-.6.43-2.3.5-3.02"/><path d="M2 12a10 10 0 0 1 18-6"/><path d="M2 16h.01"/><path d="M21.8 16c.2-2 .131-5.354 0-6"/><path d="M5 19.5C5.5 18 6 15 6 12a6 6 0 0 1 .34-2"/><path d="M8.65 22c.21-.66.45-1.32.57-2"/><path d="M9 6.8a6 6 0 0 1 9 5.2v2"/>
  </g>
</svg>
