<svg xmlns="http://www.w3.org/2000/svg" width="512" height="512" viewBox="0 0 512 512" fill="none">
  <defs>
    <radialGradient id="stanza-icon-bg" cx="0" cy="0" r="1" gradientUnits="userSpaceOnUse" gradientTransform="translate(256 216) rotate(90) scale(310)">
      <stop stop-color="#0A2A1E"/>
      <stop offset="0.58" stop-color="#04140E"/>
      <stop offset="1" stop-color="#020604"/>
    </radialGradient>
    <filter id="stanza-icon-glow" x="62" y="62" width="388" height="388" filterUnits="userSpaceOnUse" color-interpolation-filters="sRGB">
      <feGaussianBlur stdDeviation="9"/>
    </filter>
  </defs>
  <rect width="512" height="512" rx="104" fill="url(#stanza-icon-bg)"/>
  <g transform="translate(102.4 102.4) scale(12.8)" fill="none" stroke="#34D399" stroke-width="2" stroke-linecap="round" stroke-linejoin="round" opacity="0.22" filter="url(#stanza-icon-glow)">
    <path d="M12 10a2 2 0 0 0-2 2c0 1.02-.1 2.51-.26 4"/><path d="M14 13.12c0 2.38 0 6.38-1 8.88"/><path d="M17.29 21.02c.12-.6.43-2.3.5-3.02"/><path d="M2 12a10 10 0 0 1 18-6"/><path d="M2 16h.01"/><path d="M21.8 16c.2-2 .131-5.354 0-6"/><path d="M5 19.5C5.5 18 6 15 6 12a6 6 0 0 1 .34-2"/><path d="M8.65 22c.21-.66.45-1.32.57-2"/><path d="M9 6.8a6 6 0 0 1 9 5.2v2"/>
  </g>
  <g transform="translate(102.4 102.4) scale(12.8)" fill="none" stroke="#34D399" stroke-width="2" stroke-linecap="round" stroke-linejoin="round">
    <path d="M12 10a2 2 0 0 0-2 2c0 1.02-.1 2.51-.26 4"/><path d="M14 13.12c0 2.38 0 6.38-1 8.88"/><path d="M17.29 21.02c.12-.6.43-2.3.5-3.02"/><path d="M2 12a10 10 0 0 1 18-6"/><path d="M2 16h.01"/><path d="M21.8 16c.2-2 .131-5.354 0-6"/><path d="M5 19.5C5.5 18 6 15 6 12a6 6 0 0 1 .34-2"/><path d="M8.65 22c.21-.66.45-1.32.57-2"/><path d="M9 6.8a6 6 0 0 1 9 5.2v2"/>
  </g>
</svg>
